<svg xmlns="http://www.w3.org/2000/svg" xmlns:xlink="http://www.w3.org/1999/xlink" width="50" zoomAndPan="magnify" viewBox="0 0 37.5 37.499999" height="50" preserveAspectRatio="xMidYMid meet" version="1.0"><defs><g/><clipPath id="id1"><path d="M 0 0 L 37.007812 0 L 37.007812 37.007812 L 0 37.007812 Z M 0 0 " clip-rule="nonzero"/></clipPath></defs><g clip-path="url(#id1)"><path fill="#ffffff" d="M 0 0 L 37.5 0 L 37.5 45 L 0 45 Z M 0 0 " fill-opacity="1" fill-rule="nonzero"/><path fill="#ffffff" d="M 0 0 L 37.5 0 L 37.5 37.5 L 0 37.5 Z M 0 0 " fill-opacity="1" fill-rule="nonzero"/><path fill="#c23335" d="M 0 0 L 37.5 0 L 37.5 37.5 L 0 37.5 Z M 0 0 " fill-opacity="1" fill-rule="nonzero"/></g><g fill="#ffffff" fill-opacity="1"><g transform="translate(5.166748, 20.399998)"><g><path d="M 2.625 0 L 0.984375 0 L 0.984375 -7.859375 L 5.484375 -7.859375 L 5.484375 -6.484375 L 2.625 -6.484375 L 2.625 -4.46875 L 5.296875 -4.46875 L 5.296875 -3.109375 L 2.625 -3.109375 Z M 2.625 0 "/></g></g></g><g fill="#ffffff" fill-opacity="1"><g transform="translate(11.595564, 20.399998)"><g><path d="M 5.796875 0 L 5.21875 -1.875 L 2.359375 -1.875 L 1.796875 0 L 0 0 L 2.765625 -7.890625 L 4.8125 -7.890625 L 7.59375 0 Z M 4.828125 -3.265625 C 4.304688 -4.960938 4.007812 -5.921875 3.9375 -6.140625 C 3.875 -6.359375 3.828125 -6.535156 3.796875 -6.671875 C 3.679688 -6.210938 3.34375 -5.078125 2.78125 -3.265625 Z M 4.828125 -3.265625 "/></g></g></g><g fill="#ffffff" fill-opacity="1"><g transform="translate(19.575524, 20.399998)"><g><path d="M 0.984375 0 L 0.984375 -7.859375 L 2.65625 -7.859375 L 2.65625 -1.375 L 5.84375 -1.375 L 5.84375 0 Z M 0.984375 0 "/></g></g></g><g fill="#ffffff" fill-opacity="1"><g transform="translate(26.181461, 20.399998)"><g><path d="M 5.515625 0 L 0.984375 0 L 0.984375 -7.859375 L 5.515625 -7.859375 L 5.515625 -6.484375 L 2.65625 -6.484375 L 2.65625 -4.765625 L 5.3125 -4.765625 L 5.3125 -3.40625 L 2.65625 -3.40625 L 2.65625 -1.375 L 5.515625 -1.375 Z M 5.515625 0 "/></g></g></g><g fill="#ffffff" fill-opacity="1"><g transform="translate(2.999812, 26.924998)"><g><path d="M 2.359375 -3.59375 C 2.015625 -3.59375 1.75 -3.460938 1.5625 -3.203125 C 1.375 -2.941406 1.28125 -2.582031 1.28125 -2.125 C 1.28125 -1.175781 1.640625 -0.703125 2.359375 -0.703125 C 2.660156 -0.703125 3.023438 -0.773438 3.453125 -0.921875 L 3.453125 -0.15625 C 3.097656 -0.0078125 2.707031 0.0625 2.28125 0.0625 C 1.65625 0.0625 1.175781 -0.125 0.84375 -0.5 C 0.507812 -0.882812 0.34375 -1.429688 0.34375 -2.140625 C 0.34375 -2.578125 0.421875 -2.960938 0.578125 -3.296875 C 0.742188 -3.640625 0.976562 -3.898438 1.28125 -4.078125 C 1.59375 -4.253906 1.953125 -4.34375 2.359375 -4.34375 C 2.773438 -4.34375 3.191406 -4.242188 3.609375 -4.046875 L 3.3125 -3.3125 C 3.15625 -3.382812 2.992188 -3.445312 2.828125 -3.5 C 2.671875 -3.5625 2.515625 -3.59375 2.359375 -3.59375 Z M 2.359375 -3.59375 "/></g></g></g><g fill="#ffffff" fill-opacity="1"><g transform="translate(7.04959, 26.924998)"><g><path d="M 4.421875 -2.140625 C 4.421875 -1.429688 4.242188 -0.882812 3.890625 -0.5 C 3.546875 -0.125 3.046875 0.0625 2.390625 0.0625 C 1.734375 0.0625 1.226562 -0.125 0.875 -0.5 C 0.519531 -0.882812 0.34375 -1.4375 0.34375 -2.15625 C 0.34375 -2.863281 0.519531 -3.40625 0.875 -3.78125 C 1.226562 -4.15625 1.734375 -4.34375 2.390625 -4.34375 C 3.046875 -4.34375 3.546875 -4.15625 3.890625 -3.78125 C 4.242188 -3.40625 4.421875 -2.859375 4.421875 -2.140625 Z M 1.296875 -2.140625 C 1.296875 -1.671875 1.382812 -1.3125 1.5625 -1.0625 C 1.75 -0.820312 2.023438 -0.703125 2.390625 -0.703125 C 3.109375 -0.703125 3.46875 -1.179688 3.46875 -2.140625 C 3.46875 -3.109375 3.109375 -3.59375 2.390625 -3.59375 C 2.035156 -3.59375 1.765625 -3.46875 1.578125 -3.21875 C 1.390625 -2.976562 1.296875 -2.617188 1.296875 -2.140625 Z M 1.296875 -2.140625 "/></g></g></g><g fill="#ffffff" fill-opacity="1"><g transform="translate(12.049651, 26.924998)"><g><path d="M 4.34375 0 L 3.1875 0 L 1.328125 -3.234375 L 1.296875 -3.234375 C 1.328125 -2.660156 1.34375 -2.253906 1.34375 -2.015625 L 1.34375 0 L 0.546875 0 L 0.546875 -4.28125 L 1.6875 -4.28125 L 3.546875 -1.078125 L 3.5625 -1.078125 C 3.53125 -1.628906 3.515625 -2.019531 3.515625 -2.25 L 3.515625 -4.28125 L 4.34375 -4.28125 Z M 4.34375 0 "/></g></g></g><g fill="#ffffff" fill-opacity="1"><g transform="translate(17.152057, 26.924998)"><g><path d="M 4.421875 -2.140625 C 4.421875 -1.429688 4.242188 -0.882812 3.890625 -0.5 C 3.546875 -0.125 3.046875 0.0625 2.390625 0.0625 C 1.734375 0.0625 1.226562 -0.125 0.875 -0.5 C 0.519531 -0.882812 0.34375 -1.4375 0.34375 -2.15625 C 0.34375 -2.863281 0.519531 -3.40625 0.875 -3.78125 C 1.226562 -4.15625 1.734375 -4.34375 2.390625 -4.34375 C 3.046875 -4.34375 3.546875 -4.15625 3.890625 -3.78125 C 4.242188 -3.40625 4.421875 -2.859375 4.421875 -2.140625 Z M 1.296875 -2.140625 C 1.296875 -1.671875 1.382812 -1.3125 1.5625 -1.0625 C 1.75 -0.820312 2.023438 -0.703125 2.390625 -0.703125 C 3.109375 -0.703125 3.46875 -1.179688 3.46875 -2.140625 C 3.46875 -3.109375 3.109375 -3.59375 2.390625 -3.59375 C 2.035156 -3.59375 1.765625 -3.46875 1.578125 -3.21875 C 1.390625 -2.976562 1.296875 -2.617188 1.296875 -2.140625 Z M 1.296875 -2.140625 "/></g></g></g><g fill="#ffffff" fill-opacity="1"><g transform="translate(22.152118, 26.924998)"><g><path d="M 3.0625 -1.1875 C 3.0625 -0.800781 2.921875 -0.492188 2.640625 -0.265625 C 2.367188 -0.046875 1.984375 0.0625 1.484375 0.0625 C 1.023438 0.0625 0.625 -0.0234375 0.28125 -0.203125 L 0.28125 -1.046875 C 0.5625 -0.910156 0.800781 -0.816406 1 -0.765625 C 1.207031 -0.710938 1.394531 -0.6875 1.5625 -0.6875 C 1.757812 -0.6875 1.910156 -0.722656 2.015625 -0.796875 C 2.117188 -0.878906 2.171875 -0.992188 2.171875 -1.140625 C 2.171875 -1.222656 2.144531 -1.296875 2.09375 -1.359375 C 2.050781 -1.429688 1.984375 -1.5 1.890625 -1.5625 C 1.804688 -1.625 1.625 -1.71875 1.34375 -1.84375 C 1.082031 -1.96875 0.882812 -2.085938 0.75 -2.203125 C 0.625 -2.316406 0.519531 -2.445312 0.4375 -2.59375 C 0.363281 -2.75 0.328125 -2.925781 0.328125 -3.125 C 0.328125 -3.5 0.453125 -3.796875 0.703125 -4.015625 C 0.960938 -4.234375 1.320312 -4.34375 1.78125 -4.34375 C 2 -4.34375 2.207031 -4.316406 2.40625 -4.265625 C 2.613281 -4.210938 2.828125 -4.140625 3.046875 -4.046875 L 2.75 -3.34375 C 2.519531 -3.4375 2.332031 -3.5 2.1875 -3.53125 C 2.039062 -3.570312 1.894531 -3.59375 1.75 -3.59375 C 1.570312 -3.59375 1.4375 -3.550781 1.34375 -3.46875 C 1.257812 -3.382812 1.21875 -3.28125 1.21875 -3.15625 C 1.21875 -3.070312 1.234375 -3 1.265625 -2.9375 C 1.304688 -2.882812 1.363281 -2.828125 1.4375 -2.765625 C 1.519531 -2.710938 1.710938 -2.613281 2.015625 -2.46875 C 2.421875 -2.28125 2.695312 -2.085938 2.84375 -1.890625 C 2.988281 -1.703125 3.0625 -1.46875 3.0625 -1.1875 Z M 3.0625 -1.1875 "/></g></g></g><g fill="#ffffff" fill-opacity="1"><g transform="translate(25.684348, 26.924998)"><g><path d="M 2.359375 -3.59375 C 2.015625 -3.59375 1.75 -3.460938 1.5625 -3.203125 C 1.375 -2.941406 1.28125 -2.582031 1.28125 -2.125 C 1.28125 -1.175781 1.640625 -0.703125 2.359375 -0.703125 C 2.660156 -0.703125 3.023438 -0.773438 3.453125 -0.921875 L 3.453125 -0.15625 C 3.097656 -0.0078125 2.707031 0.0625 2.28125 0.0625 C 1.65625 0.0625 1.175781 -0.125 0.84375 -0.5 C 0.507812 -0.882812 0.34375 -1.429688 0.34375 -2.140625 C 0.34375 -2.578125 0.421875 -2.960938 0.578125 -3.296875 C 0.742188 -3.640625 0.976562 -3.898438 1.28125 -4.078125 C 1.59375 -4.253906 1.953125 -4.34375 2.359375 -4.34375 C 2.773438 -4.34375 3.191406 -4.242188 3.609375 -4.046875 L 3.3125 -3.3125 C 3.15625 -3.382812 2.992188 -3.445312 2.828125 -3.5 C 2.671875 -3.5625 2.515625 -3.59375 2.359375 -3.59375 Z M 2.359375 -3.59375 "/></g></g></g><g fill="#ffffff" fill-opacity="1"><g transform="translate(29.734125, 26.924998)"><g><path d="M 4.421875 -2.140625 C 4.421875 -1.429688 4.242188 -0.882812 3.890625 -0.5 C 3.546875 -0.125 3.046875 0.0625 2.390625 0.0625 C 1.734375 0.0625 1.226562 -0.125 0.875 -0.5 C 0.519531 -0.882812 0.34375 -1.4375 0.34375 -2.15625 C 0.34375 -2.863281 0.519531 -3.40625 0.875 -3.78125 C 1.226562 -4.15625 1.734375 -4.34375 2.390625 -4.34375 C 3.046875 -4.34375 3.546875 -4.15625 3.890625 -3.78125 C 4.242188 -3.40625 4.421875 -2.859375 4.421875 -2.140625 Z M 1.296875 -2.140625 C 1.296875 -1.671875 1.382812 -1.3125 1.5625 -1.0625 C 1.75 -0.820312 2.023438 -0.703125 2.390625 -0.703125 C 3.109375 -0.703125 3.46875 -1.179688 3.46875 -2.140625 C 3.46875 -3.109375 3.109375 -3.59375 2.390625 -3.59375 C 2.035156 -3.59375 1.765625 -3.46875 1.578125 -3.21875 C 1.390625 -2.976562 1.296875 -2.617188 1.296875 -2.140625 Z M 1.296875 -2.140625 "/></g></g></g></svg>